<svg width="48" height="48" viewBox="0 0 48 48" fill="none" xmlns="http://www.w3.org/2000/svg">
<path d="M7.19995 12C7.19995 10.6725 8.27245 9.6 9.59995 9.6H38.4C39.7275 9.6 40.8 10.6725 40.8 12C40.8 13.3275 39.7275 14.4 38.4 14.4H9.59995C8.27245 14.4 7.19995 13.3275 7.19995 12ZM7.19995 24C7.19995 22.6725 8.27245 21.6 9.59995 21.6H38.4C39.7275 21.6 40.8 22.6725 40.8 24C40.8 25.3275 39.7275 26.4 38.4 26.4H9.59995C8.27245 26.4 7.19995 25.3275 7.19995 24ZM40.8 36C40.8 37.3275 39.7275 38.4 38.4 38.4H9.59995C8.27245 38.4 7.19995 37.3275 7.19995 36C7.19995 34.6725 8.27245 33.6 9.59995 33.6H38.4C39.7275 33.6 40.8 34.6725 40.8 36Z" fill="black"/>
</svg>
