<svg width="16" height="16" viewBox="0 0 16 16" fill="none" xmlns="http://www.w3.org/2000/svg">
<path d="M7.99961 14.4C4.46461 14.4 1.59961 11.535 1.59961 7.99998C1.59961 4.46498 4.46461 1.59998 7.99961 1.59998C11.5346 1.59998 14.3996 4.46498 14.3996 7.99998C14.3996 11.535 11.5346 14.4 7.99961 14.4ZM7.99961 2.79998C5.12711 2.79998 2.79961 5.12748 2.79961 7.99998C2.79961 10.8725 5.12711 13.2 7.99961 13.2C10.8721 13.2 13.1996 10.8725 13.1996 7.99998C13.1996 5.12748 10.8721 2.79998 7.99961 2.79998ZM9.76711 5.84748C9.96211 5.57998 10.3371 5.51998 10.6046 5.71498C10.8721 5.90998 10.9321 6.28498 10.7371 6.55248L7.68461 10.7525C7.58211 10.895 7.42211 10.985 7.24711 10.9975C7.07211 11.01 6.89961 10.9475 6.77711 10.825L5.37961 9.42748C5.14461 9.19248 5.14461 8.81248 5.37961 8.57998C5.61461 8.34748 5.99461 8.34498 6.22711 8.57998L7.12711 9.47998L9.76711 5.84998V5.84748Z" fill="black"/>
</svg>
