<svg width="47" height="48" viewBox="0 0 47 48" fill="none" xmlns="http://www.w3.org/2000/svg">
<path d="M42.3 24C42.3 13.3951 33.884 4.80005 23.5 4.80005C13.1159 4.80005 4.69995 13.3951 4.69995 24C4.69995 33 10.7732 40.5601 18.9615 42.6376V29.8651H15.084V24H18.9615V21.4725C18.9615 14.94 21.855 11.91 28.1412 11.91C29.3309 11.91 31.3871 12.15 32.2317 12.39V17.7C31.791 17.655 31.02 17.625 30.0579 17.625C26.9735 17.625 25.7839 18.8176 25.7839 21.9151V24H31.9232L30.8657 29.8651H25.7765V43.0575C35.0884 41.91 42.3 33.8175 42.3 24Z" fill="black"/>
</svg>
