<svg width="48" height="48" viewBox="0 0 48 48" fill="none" xmlns="http://www.w3.org/2000/svg">
<path d="M24.0226 15.3749C19.2601 15.3599 15.3901 19.2149 15.3751 23.9774C15.3601 28.7399 19.2151 32.6099 23.9776 32.6249C28.7401 32.6399 32.6101 28.7849 32.6251 24.0224C32.6401 19.2599 28.7851 15.3899 24.0226 15.3749ZM23.9776 18.4049C27.0676 18.3899 29.5801 20.8874 29.5951 23.9774C29.6101 27.0674 27.1126 29.5799 24.0226 29.5949C20.9326 29.6099 18.4201 27.1124 18.4051 24.0224C18.3901 20.9324 20.8876 18.4199 23.9776 18.4049ZM30.9826 15.0224C30.9826 13.9124 31.8826 13.0124 32.9926 13.0124C34.1026 13.0124 35.0026 13.9124 35.0026 15.0224C35.0026 16.1324 34.1026 17.0324 32.9926 17.0324C31.8826 17.0324 30.9826 16.1324 30.9826 15.0224ZM40.7101 17.0624C40.5826 14.3699 39.9676 11.9849 37.9951 10.0199C36.0301 8.05489 33.6451 7.43989 30.9526 7.30489C28.1776 7.14739 19.8601 7.14739 17.0851 7.30489C14.4001 7.43239 12.0151 8.04739 10.0426 10.0124C8.0701 11.9774 7.4626 14.3624 7.3276 17.0549C7.1701 19.8299 7.1701 28.1474 7.3276 30.9224C7.4551 33.6149 8.0701 35.9999 10.0426 37.9649C12.0151 39.9299 14.3926 40.5449 17.0851 40.6799C19.8601 40.8374 28.1776 40.8374 30.9526 40.6799C33.6451 40.5524 36.0301 39.9374 37.9951 37.9649C39.9601 35.9999 40.5751 33.6149 40.7101 30.9224C40.8676 28.1474 40.8676 19.8374 40.7101 17.0624ZM37.1251 33.8999C36.5401 35.3699 35.4076 36.5024 33.9301 37.0949C31.7176 37.9724 26.4676 37.7699 24.0226 37.7699C21.5776 37.7699 16.3201 37.9649 14.1151 37.0949C12.6451 36.5099 11.5126 35.3774 10.9201 33.8999C10.0426 31.6874 10.2451 26.4374 10.2451 23.9924C10.2451 21.5474 10.0501 16.2899 10.9201 14.0849C11.5051 12.6149 12.6376 11.4824 14.1151 10.8899C16.3276 10.0124 21.5776 10.2149 24.0226 10.2149C26.4676 10.2149 31.7251 10.0199 33.9301 10.8899C35.4001 11.4749 36.5326 12.6074 37.1251 14.0849C38.0026 16.2974 37.8001 21.5474 37.8001 23.9924C37.8001 26.4374 38.0026 31.6949 37.1251 33.8999Z" fill="black"/>
</svg>
