<svg width="89" height="40" viewBox="0 0 89 40" fill="none" xmlns="http://www.w3.org/2000/svg">
<path d="M15.5 8.5C32.7703 13.2113 57.0946 11.5623 69.5 8.5C58.3108 31.5852 19.8784 22.1627 15.5 8.5Z" fill="black" stroke="black"/>
<path d="M26.7472 22.2194C17.8483 19.0109 9.69101 7.90435 4.5 0.5C6.97191 40.2367 42.073 40.2367 48.5 39.2495C43.5562 37.0775 31.9382 26.9911 26.7472 22.2194Z" fill="black" stroke="black"/>
<path d="M0.5 10.625L2.25 9.5C2.65 11.12 6.58333 14.525 8.5 16.025L9.5 18.5C7.9 17.96 2.83333 13.025 0.5 10.625Z" fill="black" stroke="black"/>
<path d="M80.5 0.5C68.3125 21.7208 51.0063 25.9156 41.5 24.4351C41.5 27.3961 49.5437 38.5 51.0063 38.5C52.1763 38.5 80.5 31.5909 80.5 0.5Z" fill="black" stroke="black"/>
<path d="M84.2143 9.5C83.8029 10.0684 80.3571 14.2368 77.5286 16.1316C77.3229 16.7 76.7571 17.9474 76.5 18.5C80.6143 16.6053 84.2143 12.3421 85.5 10.4474L84.2143 9.5Z" fill="black" stroke="black"/>
</svg>
