<svg width="47" height="48" viewBox="0 0 47 48" fill="none" xmlns="http://www.w3.org/2000/svg">
<path d="M14.1 7.19995C10.2079 7.19995 7.05005 10.425 7.05005 14.4V33.5999C7.05005 37.5749 10.2079 40.7999 14.1 40.7999H32.9001C36.7922 40.7999 39.9501 37.5749 39.9501 33.5999V14.4C39.9501 10.425 36.7922 7.19995 32.9001 7.19995H14.1ZM19.8061 23.4974C19.8061 25.9874 21.7816 28.0124 24.2271 28.0124C26.6652 28.0124 28.6407 25.9874 28.6407 23.4974C28.6407 21.0074 26.6652 18.99 24.2271 18.99C21.7816 18.99 19.8061 21.0074 19.8061 23.4974ZM15.7965 33.8849C15.7744 33.8249 15.7597 33.7575 15.7597 33.69V15.3674C15.7597 15.2325 15.8111 15.0975 15.9066 15C16.0021 14.9025 16.1269 14.85 16.2665 14.85H17.5075C17.5957 14.85 17.6765 14.8725 17.7499 14.91C17.8233 14.9475 17.8894 15.0075 17.9335 15.0825L18.9616 16.7175C20.4083 15.5475 22.2296 14.8425 24.2197 14.8425C28.8904 14.8425 32.6797 18.7125 32.6797 23.4825C32.6797 28.2525 28.8977 32.1374 24.2197 32.1374C22.6041 32.1374 21.0913 31.6725 19.8061 30.8699V33.69C19.8061 33.7575 19.7915 33.8249 19.7694 33.8849C19.7474 33.9449 19.7033 34.0049 19.6593 34.0499C19.6152 34.0949 19.5565 34.1325 19.4977 34.1624C19.439 34.1924 19.3729 34.1999 19.3068 34.1999H16.2738C16.2077 34.1999 16.1416 34.1849 16.0829 34.1624C16.0241 34.1399 15.9654 34.0949 15.9213 34.0499C15.8772 34.0049 15.8405 33.9449 15.8111 33.8849H15.7965Z" fill="black"/>
</svg>
