<svg width="48" height="48" viewBox="0 0 48 48" fill="none" xmlns="http://www.w3.org/2000/svg">
<path d="M28.35 24.015L21.2099 19.9575V28.0724L28.35 24.015ZM36 7.19995H12C9.35245 7.19995 7.19995 9.35245 7.19995 12V36C7.19995 38.6474 9.35245 40.7999 12 40.7999H36C38.6474 40.7999 40.7999 38.6474 40.7999 36V12C40.7999 9.35245 38.6474 7.19995 36 7.19995ZM37.0799 17.4075C37.6499 19.5525 37.65 24.0224 37.65 24.0224C37.65 24.0224 37.6499 28.4924 37.0799 30.6299C36.7649 31.8149 35.8425 32.7074 34.665 33.0224C32.5424 33.5999 24 33.5999 24 33.5999C24 33.5999 15.4575 33.5999 13.335 33.0299C12.1575 32.7149 11.235 31.8225 10.92 30.6374C10.35 28.4925 10.35 24.0224 10.35 24.0224C10.35 24.0224 10.35 19.545 10.92 17.4075C11.235 16.2225 12.1575 15.2925 13.335 14.9775C15.4575 14.4 24 14.4 24 14.4C24 14.4 32.5424 14.4 34.665 14.9775C35.8425 15.2925 36.7649 16.2225 37.0799 17.4075Z" fill="black"/>
</svg>
